<svg id="Layer_1_1_" enable-background="new 0 0 64 64" height="512" viewBox="0 0 64 64" width="512"
    xmlns="http://www.w3.org/2000/svg">
    <g>
        <path
            d="m20 5 10 35c2.464 0 4.728 1.353 5.896 3.522l3.094 5.745c-1.806 1.266-2.99 3.36-2.99 5.733 0 3.866 3.134 7 7 7s7-3.134 7-7-3.134-7-7-7c-.442 0-.872.046-1.291.124l-20.709-46.124zm19 50c0-2.209 1.791-4 4-4s4 1.791 4 4-1.791 4-4 4-4-1.791-4-4z"
            fill="#b5b8d1" />
        <path
            d="m36 55c0 3.866 3.134 7 7 7s7-3.134 7-7-3.134-7-7-7-7 3.134-7 7zm3 0c0-2.209 1.791-4 4-4s4 1.791 4 4-1.791 4-4 4-4-1.791-4-4z"
            fill="#40ccf6" />
        <path
            d="m43 2-20.709 46.124c-.419-.078-.849-.124-1.291-.124-3.866 0-7 3.134-7 7s3.134 7 7 7 7-3.134 7-7c0-2.373-1.184-4.467-2.99-5.733l3.094-5.745c1.168-2.169 3.432-3.522 5.896-3.522l10-35zm-22 57c-2.209 0-4-1.791-4-4s1.791-4 4-4 4 1.791 4 4-1.791 4-4 4z"
            fill="#b5b8d1" />
        <path
            d="m21 48c-3.866 0-7 3.134-7 7s3.134 7 7 7 7-3.134 7-7-3.134-7-7-7zm0 11c-2.209 0-4-1.791-4-4s1.791-4 4-4 4 1.791 4 4-1.791 4-4 4z"
            fill="#40ccf6" />
    </g>
</svg>